<svg width="1320" height="570" viewBox="0 0 1320 570" fill="none" xmlns="http://www.w3.org/2000/svg" role="img" aria-labelledby="t d">
  <title id="t">dgodolias language and stack card</title>
  <desc id="d">Languages by repository count and the tools Dimosthenis Gkontolias works with.</desc>
  <style>
    .mono, .caption, .prompt, .cmd, .lab, .val, .chip-t, .foot, .head {
      font-family: "Cascadia Mono", "Consolas", "SF Mono", "Liberation Mono", "DejaVu Sans Mono", monospace;
    }
    .page { fill: #0d1117; }
    .frame { fill: #161b22; stroke: #8b949e; stroke-width: 1.2; }
    .bar { fill: #0d1117; opacity: .86; }
    .caption { fill: #f0f6fc; font-size: 15px; font-weight: 600; }
    .prompt { fill: #3fb950; font-size: 15px; font-weight: 600; }
    .cmd { fill: #f0f6fc; font-size: 15px; }
    .head { fill: #6e7681; font-size: 11.5px; letter-spacing: 1.6px; font-weight: 600; }
    .lab { fill: #f0f6fc; font-size: 13px; }
    .val { fill: #6e7681; font-size: 12px; }
    .track { fill: #21262d; }
    .chip { fill: #161b22; stroke: #30363d; stroke-width: 1; }
    .chip-t { fill: #adbac7; font-size: 12.5px; }
    .foot { fill: #6e7681; font-size: 12.5px; }
    .foot-hi { fill: #79c0ff; }

    @keyframes fadeIn { from { opacity: 0; } to { opacity: 1; } }
    @keyframes fadeUp { from { opacity: 0; transform: translateY(6px); } to { opacity: 1; transform: none; } }
    @keyframes blink  { 0%, 49% { opacity: 1; } 50%, 100% { opacity: 0; } }

    .an-frame { opacity: 0; animation: fadeIn .5s ease-out .15s forwards; }
    .item     { opacity: 0; animation: fadeUp .42s cubic-bezier(.2,.7,.3,1) forwards; }
    .caret    { opacity: 0; animation: blink 1.06s step-end 1.5s infinite; }

    @media (prefers-reduced-motion: reduce) {
      .an-frame, .item { opacity: 1; animation: none; }
      .caret { opacity: 1; animation: none; }
      .grow  { display: none; }
    }
  </style>
  <defs>
    <clipPath id="typeclip">
      <rect x="-4" y="-18" width="0" height="26">
        <animate attributeName="width" dur="0.95s" begin="0.5s" fill="freeze" calcMode="discrete" values="0.0;9.03;18.06;27.09;36.12;45.15;54.18;63.21;72.24;81.27;90.3;99.33;108.36;117.39;126.42;135.45;144.48;153.51;162.54;171.57;180.6;189.63;198.66;207.69;216.72;225.75;234.78;243.81"/>
      </rect>
    </clipPath>
  </defs>

  <rect class="page" width="1320" height="570" rx="16"/>
  <g class="an-frame">
    <rect class="frame" x="18" y="18" width="1284" height="534" rx="14"/>
    <rect class="bar" x="38" y="78" width="1244" height="456" rx="13"/>
    <circle cx="64" cy="47" r="7" fill="#f85149"/>
    <circle cx="88" cy="47" r="7" fill="#d29922"/>
    <circle cx="112" cy="47" r="7" fill="#3fb950"/>
    <text class="caption" x="136" y="52">dgodolias / stack</text>
  </g>

  <g transform="translate(60 112)">
    <text class="prompt" x="0" y="0">$</text>
    <g clip-path="url(#typeclip)" transform="translate(18 0)">
      <text class="cmd" x="0" y="0">tokei --languages --by-repo</text>
    </g>
    <rect class="caret" x="265.8" y="-12" width="9" height="16" fill="#3fb950"/>
  </g>

  <text class="head item" x="60" y="168" style="animation-delay:1.7s">LANGUAGES &#183; BY REPOSITORY</text>
  <g class="item" style="animation-delay:1.82s">
    <text class="lab" x="60" y="206">Python</text>
    <rect class="track" x="210" y="193" width="350" height="12" rx="6"/>
    <rect class="grow" x="210" y="193" width="0" height="12" rx="6" fill="#3572A5">
      <animate attributeName="width" from="0" to="350.0" dur=".85s" begin="1.92s" fill="freeze" calcMode="spline" keySplines="0.2 0.7 0.3 1" keyTimes="0;1"/>
    </rect>
    <text class="val" x="574" y="205">10 repos</text>
  </g>
  <g class="item" style="animation-delay:1.91s">
    <text class="lab" x="60" y="244">TypeScript</text>
    <rect class="track" x="210" y="231" width="350" height="12" rx="6"/>
    <rect class="grow" x="210" y="231" width="0" height="12" rx="6" fill="#3178c6">
      <animate attributeName="width" from="0" to="245.0" dur=".85s" begin="2.01s" fill="freeze" calcMode="spline" keySplines="0.2 0.7 0.3 1" keyTimes="0;1"/>
    </rect>
    <text class="val" x="574" y="243">7 repos</text>
  </g>
  <g class="item" style="animation-delay:2.0s">
    <text class="lab" x="60" y="282">HTML</text>
    <rect class="track" x="210" y="269" width="350" height="12" rx="6"/>
    <rect class="grow" x="210" y="269" width="0" height="12" rx="6" fill="#e34c26">
      <animate attributeName="width" from="0" to="140.0" dur=".85s" begin="2.1s" fill="freeze" calcMode="spline" keySplines="0.2 0.7 0.3 1" keyTimes="0;1"/>
    </rect>
    <text class="val" x="574" y="281">4 repos</text>
  </g>
  <g class="item" style="animation-delay:2.09s">
    <text class="lab" x="60" y="320">Java</text>
    <rect class="track" x="210" y="307" width="350" height="12" rx="6"/>
    <rect class="grow" x="210" y="307" width="0" height="12" rx="6" fill="#b07219">
      <animate attributeName="width" from="0" to="105.0" dur=".85s" begin="2.19s" fill="freeze" calcMode="spline" keySplines="0.2 0.7 0.3 1" keyTimes="0;1"/>
    </rect>
    <text class="val" x="574" y="319">3 repos</text>
  </g>
  <g class="item" style="animation-delay:2.18s">
    <text class="lab" x="60" y="358">JavaScript</text>
    <rect class="track" x="210" y="345" width="350" height="12" rx="6"/>
    <rect class="grow" x="210" y="345" width="0" height="12" rx="6" fill="#f1e05a">
      <animate attributeName="width" from="0" to="70.0" dur=".85s" begin="2.28s" fill="freeze" calcMode="spline" keySplines="0.2 0.7 0.3 1" keyTimes="0;1"/>
    </rect>
    <text class="val" x="574" y="357">2 repos</text>
  </g>
  <g class="item" style="animation-delay:2.27s">
    <text class="lab" x="60" y="396">CSS</text>
    <rect class="track" x="210" y="383" width="350" height="12" rx="6"/>
    <rect class="grow" x="210" y="383" width="0" height="12" rx="6" fill="#663399">
      <animate attributeName="width" from="0" to="70.0" dur=".85s" begin="2.37s" fill="freeze" calcMode="spline" keySplines="0.2 0.7 0.3 1" keyTimes="0;1"/>
    </rect>
    <text class="val" x="574" y="395">2 repos</text>
  </g>
  <text class="head item" x="668" y="168" style="animation-delay:1.7s">STACK</text>
  <text class="val item" x="668" y="196" style="animation-delay:1.82s">languages</text>
  <text class="val item" x="668" y="260" style="animation-delay:2.13s">frontend</text>
  <text class="val item" x="668" y="324" style="animation-delay:2.44s">backend and data</text>
  <text class="val item" x="668" y="388" style="animation-delay:2.75s">ai and automation</text>
  <text class="val item" x="668" y="452" style="animation-delay:3.06s">cloud and ops</text>
  <g class="item" style="animation-delay:1.89s">
    <rect class="chip" x="668" y="208" width="64.0" height="26" rx="13"/>
    <text class="chip-t" x="700.0" y="225" text-anchor="middle">Python</text>
  </g>
  <g class="item" style="animation-delay:1.93s">
    <rect class="chip" x="740.0" y="208" width="92.0" height="26" rx="13"/>
    <text class="chip-t" x="786.0" y="225" text-anchor="middle">TypeScript</text>
  </g>
  <g class="item" style="animation-delay:1.97s">
    <rect class="chip" x="840.0" y="208" width="92.0" height="26" rx="13"/>
    <text class="chip-t" x="886.0" y="225" text-anchor="middle">JavaScript</text>
  </g>
  <g class="item" style="animation-delay:2.01s">
    <rect class="chip" x="940.0" y="208" width="50.0" height="26" rx="13"/>
    <text class="chip-t" x="965.0" y="225" text-anchor="middle">Java</text>
  </g>
  <g class="item" style="animation-delay:2.05s">
    <rect class="chip" x="998.0" y="208" width="36.0" height="26" rx="13"/>
    <text class="chip-t" x="1016.0" y="225" text-anchor="middle">C#</text>
  </g>
  <g class="item" style="animation-delay:2.09s">
    <rect class="chip" x="1042.0" y="208" width="43.0" height="26" rx="13"/>
    <text class="chip-t" x="1063.5" y="225" text-anchor="middle">C++</text>
  </g>
  <g class="item" style="animation-delay:2.2s">
    <rect class="chip" x="668" y="272" width="57.0" height="26" rx="13"/>
    <text class="chip-t" x="696.5" y="289" text-anchor="middle">React</text>
  </g>
  <g class="item" style="animation-delay:2.24s">
    <rect class="chip" x="733.0" y="272" width="71.0" height="26" rx="13"/>
    <text class="chip-t" x="768.5" y="289" text-anchor="middle">Next.js</text>
  </g>
  <g class="item" style="animation-delay:2.28s">
    <rect class="chip" x="812.0" y="272" width="106.0" height="26" rx="13"/>
    <text class="chip-t" x="865.0" y="289" text-anchor="middle">Tailwind CSS</text>
  </g>
  <g class="item" style="animation-delay:2.32s">
    <rect class="chip" x="926.0" y="272" width="85.0" height="26" rx="13"/>
    <text class="chip-t" x="968.5" y="289" text-anchor="middle">shadcn/ui</text>
  </g>
  <g class="item" style="animation-delay:2.36s">
    <rect class="chip" x="1019.0" y="272" width="50.0" height="26" rx="13"/>
    <text class="chip-t" x="1044.0" y="289" text-anchor="middle">Vite</text>
  </g>
  <g class="item" style="animation-delay:2.4s">
    <rect class="chip" x="1077.0" y="272" width="113.0" height="26" rx="13"/>
    <text class="chip-t" x="1133.5" y="289" text-anchor="middle">Framer Motion</text>
  </g>
  <g class="item" style="animation-delay:2.51s">
    <rect class="chip" x="668" y="336" width="71.0" height="26" rx="13"/>
    <text class="chip-t" x="703.5" y="353" text-anchor="middle">FastAPI</text>
  </g>
  <g class="item" style="animation-delay:2.55s">
    <rect class="chip" x="747.0" y="336" width="106.0" height="26" rx="13"/>
    <text class="chip-t" x="800.0" y="353" text-anchor="middle">Node/Express</text>
  </g>
  <g class="item" style="animation-delay:2.59s">
    <rect class="chip" x="861.0" y="336" width="64.0" height="26" rx="13"/>
    <text class="chip-t" x="893.0" y="353" text-anchor="middle">Django</text>
  </g>
  <g class="item" style="animation-delay:2.63s">
    <rect class="chip" x="933.0" y="336" width="57.0" height="26" rx="13"/>
    <text class="chip-t" x="961.5" y="353" text-anchor="middle">Flask</text>
  </g>
  <g class="item" style="animation-delay:2.67s">
    <rect class="chip" x="998.0" y="336" width="106.0" height="26" rx="13"/>
    <text class="chip-t" x="1051.0" y="353" text-anchor="middle">ASP.NET Core</text>
  </g>
  <g class="item" style="animation-delay:2.71s">
    <rect class="chip" x="1112.0" y="336" width="92.0" height="26" rx="13"/>
    <text class="chip-t" x="1158.0" y="353" text-anchor="middle">PostgreSQL</text>
  </g>
  <g class="item" style="animation-delay:2.82s">
    <rect class="chip" x="668" y="400" width="43.0" height="26" rx="13"/>
    <text class="chip-t" x="689.5" y="417" text-anchor="middle">RAG</text>
  </g>
  <g class="item" style="animation-delay:2.86s">
    <rect class="chip" x="719.0" y="400" width="78.0" height="26" rx="13"/>
    <text class="chip-t" x="758.0" y="417" text-anchor="middle">LLM APIs</text>
  </g>
  <g class="item" style="animation-delay:2.9s">
    <rect class="chip" x="805.0" y="400" width="71.0" height="26" rx="13"/>
    <text class="chip-t" x="840.5" y="417" text-anchor="middle">PyTorch</text>
  </g>
  <g class="item" style="animation-delay:2.94s">
    <rect class="chip" x="884.0" y="400" width="106.0" height="26" rx="13"/>
    <text class="chip-t" x="937.0" y="417" text-anchor="middle">scikit-learn</text>
  </g>
  <g class="item" style="animation-delay:2.98s">
    <rect class="chip" x="998.0" y="400" width="92.0" height="26" rx="13"/>
    <text class="chip-t" x="1044.0" y="417" text-anchor="middle">Playwright</text>
  </g>
  <g class="item" style="animation-delay:3.02s">
    <rect class="chip" x="1098.0" y="400" width="78.0" height="26" rx="13"/>
    <text class="chip-t" x="1137.0" y="417" text-anchor="middle">Selenium</text>
  </g>
  <g class="item" style="animation-delay:3.13s">
    <rect class="chip" x="668" y="464" width="64.0" height="26" rx="13"/>
    <text class="chip-t" x="700.0" y="481" text-anchor="middle">Docker</text>
  </g>
  <g class="item" style="animation-delay:3.17s">
    <rect class="chip" x="740.0" y="464" width="85.0" height="26" rx="13"/>
    <text class="chip-t" x="782.5" y="481" text-anchor="middle">Terraform</text>
  </g>
  <g class="item" style="animation-delay:3.21s">
    <rect class="chip" x="833.0" y="464" width="43.0" height="26" rx="13"/>
    <text class="chip-t" x="854.5" y="481" text-anchor="middle">GCP</text>
  </g>
  <g class="item" style="animation-delay:3.25s">
    <rect class="chip" x="884.0" y="464" width="78.0" height="26" rx="13"/>
    <text class="chip-t" x="923.0" y="481" text-anchor="middle">Firebase</text>
  </g>
  <g class="item" style="animation-delay:3.29s">
    <rect class="chip" x="970.0" y="464" width="43.0" height="26" rx="13"/>
    <text class="chip-t" x="991.5" y="481" text-anchor="middle">Git</text>
  </g>
  <g class="item" style="animation-delay:3.33s">
    <rect class="chip" x="1021.0" y="464" width="57.0" height="26" rx="13"/>
    <text class="chip-t" x="1049.5" y="481" text-anchor="middle">CI/CD</text>
  </g>
  <g class="item" style="animation-delay:3.49s">
    <line x1="60" y1="512" x2="1262" y2="512" stroke="#8b949e" stroke-width="1" opacity=".3"/>
    <text class="foot" x="60" y="534"><tspan class="foot-hi">33</tspan> public repos<tspan opacity=".5">  &#183;  </tspan><tspan class="foot-hi">319</tspan> contributions in the last year<tspan opacity=".5">  &#183;  </tspan>skills mirrored from <tspan class="foot-hi">dimosthenisgkontolias.com</tspan></text>
    <text class="foot" x="1262" y="534" text-anchor="end">no third-party trackers</text>
  </g>
</svg>
